<mxfile host="app.diagrams.net" agent="Mozilla/5.0 (Windows NT 10.0; Win64; x64) AppleWebKit/537.36 (KHTML, like Gecko) Chrome/128.0.0.0 Safari/537.36 Edg/128.0.0.0" version="24.7.16">
  <diagram id="R2lEEEUBdFMjLlhIrx00" name="Page-1">
    <mxGraphModel dx="1032" dy="555" grid="1" gridSize="10" guides="1" tooltips="1" connect="1" arrows="1" fold="1" page="1" pageScale="1" pageWidth="850" pageHeight="1100" math="0" shadow="0" extFonts="Permanent Marker^https://fonts.googleapis.com/css?family=Permanent+Marker">
      <root>
        <mxCell id="0" />
        <mxCell id="1" parent="0" />
        <mxCell id="L5Cra1L9hOz5cC9cRkCS-1" value="Usuario" style="shape=swimlane;whiteSpace=wrap;html=1;fillColor=#dae8fc;strokeColor=#6c8ebf;" vertex="1" parent="1">
          <mxGeometry x="250" y="360" width="140" height="200" as="geometry" />
        </mxCell>
        <mxCell id="L5Cra1L9hOz5cC9cRkCS-2" value="ID_Usuario (PK)" style="text;html=1;whiteSpace=wrap;" vertex="1" parent="L5Cra1L9hOz5cC9cRkCS-1">
          <mxGeometry y="40" width="140" height="30" as="geometry" />
        </mxCell>
        <mxCell id="L5Cra1L9hOz5cC9cRkCS-3" value="Nombre" style="text;html=1;whiteSpace=wrap;" vertex="1" parent="L5Cra1L9hOz5cC9cRkCS-1">
          <mxGeometry y="60" width="140" height="30" as="geometry" />
        </mxCell>
        <mxCell id="L5Cra1L9hOz5cC9cRkCS-4" value="Email" style="text;html=1;whiteSpace=wrap;" vertex="1" parent="L5Cra1L9hOz5cC9cRkCS-1">
          <mxGeometry y="80" width="140" height="30" as="geometry" />
        </mxCell>
        <mxCell id="L5Cra1L9hOz5cC9cRkCS-5" value="Contraseña" style="text;html=1;whiteSpace=wrap;" vertex="1" parent="L5Cra1L9hOz5cC9cRkCS-1">
          <mxGeometry y="110" width="140" height="30" as="geometry" />
        </mxCell>
        <mxCell id="L5Cra1L9hOz5cC9cRkCS-6" value="Rol" style="text;html=1;whiteSpace=wrap;" vertex="1" parent="L5Cra1L9hOz5cC9cRkCS-1">
          <mxGeometry y="140" width="140" height="30" as="geometry" />
        </mxCell>
        <mxCell id="L5Cra1L9hOz5cC9cRkCS-7" value="Producto" style="shape=swimlane;whiteSpace=wrap;html=1;fillColor=#dae8fc;strokeColor=#6c8ebf;" vertex="1" parent="1">
          <mxGeometry x="255" y="100" width="140" height="210" as="geometry" />
        </mxCell>
        <mxCell id="L5Cra1L9hOz5cC9cRkCS-8" value="ID_Producto (PK)" style="text;html=1;whiteSpace=wrap;" vertex="1" parent="L5Cra1L9hOz5cC9cRkCS-7">
          <mxGeometry y="40" width="140" height="30" as="geometry" />
        </mxCell>
        <mxCell id="L5Cra1L9hOz5cC9cRkCS-9" value="Nombre" style="text;html=1;whiteSpace=wrap;" vertex="1" parent="L5Cra1L9hOz5cC9cRkCS-7">
          <mxGeometry y="60" width="140" height="30" as="geometry" />
        </mxCell>
        <mxCell id="L5Cra1L9hOz5cC9cRkCS-10" value="Descripción" style="text;html=1;whiteSpace=wrap;" vertex="1" parent="L5Cra1L9hOz5cC9cRkCS-7">
          <mxGeometry y="80" width="140" height="30" as="geometry" />
        </mxCell>
        <mxCell id="L5Cra1L9hOz5cC9cRkCS-11" value="Precio" style="text;html=1;whiteSpace=wrap;" vertex="1" parent="L5Cra1L9hOz5cC9cRkCS-7">
          <mxGeometry y="100" width="140" height="30" as="geometry" />
        </mxCell>
        <mxCell id="L5Cra1L9hOz5cC9cRkCS-12" value="Stock" style="text;html=1;whiteSpace=wrap;" vertex="1" parent="L5Cra1L9hOz5cC9cRkCS-7">
          <mxGeometry y="130" width="140" height="30" as="geometry" />
        </mxCell>
        <mxCell id="L5Cra1L9hOz5cC9cRkCS-13" value="Pedido" style="shape=swimlane;whiteSpace=wrap;html=1;fillColor=#dae8fc;strokeColor=#6c8ebf;" vertex="1" parent="1">
          <mxGeometry x="455" y="100" width="140" height="210" as="geometry" />
        </mxCell>
        <mxCell id="L5Cra1L9hOz5cC9cRkCS-15" value="Fecha" style="text;html=1;whiteSpace=wrap;" vertex="1" parent="L5Cra1L9hOz5cC9cRkCS-13">
          <mxGeometry y="60" width="140" height="30" as="geometry" />
        </mxCell>
        <mxCell id="L5Cra1L9hOz5cC9cRkCS-16" value="Total" style="text;html=1;whiteSpace=wrap;" vertex="1" parent="L5Cra1L9hOz5cC9cRkCS-13">
          <mxGeometry y="90" width="140" height="30" as="geometry" />
        </mxCell>
        <mxCell id="L5Cra1L9hOz5cC9cRkCS-17" value="ID_Usuario (FK)" style="text;html=1;whiteSpace=wrap;" vertex="1" parent="L5Cra1L9hOz5cC9cRkCS-13">
          <mxGeometry y="120" width="140" height="30" as="geometry" />
        </mxCell>
        <mxCell id="L5Cra1L9hOz5cC9cRkCS-19" value="ID_Detalle (PK)" style="text;html=1;whiteSpace=wrap;" vertex="1" parent="L5Cra1L9hOz5cC9cRkCS-13">
          <mxGeometry y="40" width="140" height="30" as="geometry" />
        </mxCell>
        <mxCell id="L5Cra1L9hOz5cC9cRkCS-18" value="Detalle_Pedido" style="shape=swimlane;whiteSpace=wrap;html=1;fillColor=#dae8fc;strokeColor=#6c8ebf;" vertex="1" parent="1">
          <mxGeometry x="655" y="110" width="140" height="200" as="geometry" />
        </mxCell>
        <mxCell id="L5Cra1L9hOz5cC9cRkCS-20" value="ID_Pedido (FK)" style="text;html=1;whiteSpace=wrap;" vertex="1" parent="L5Cra1L9hOz5cC9cRkCS-18">
          <mxGeometry y="40" width="140" height="30" as="geometry" />
        </mxCell>
        <mxCell id="L5Cra1L9hOz5cC9cRkCS-21" value="ID_Producto (FK)" style="text;html=1;whiteSpace=wrap;" vertex="1" parent="L5Cra1L9hOz5cC9cRkCS-18">
          <mxGeometry y="70" width="140" height="30" as="geometry" />
        </mxCell>
        <mxCell id="L5Cra1L9hOz5cC9cRkCS-22" value="Cantidad" style="text;html=1;whiteSpace=wrap;" vertex="1" parent="L5Cra1L9hOz5cC9cRkCS-18">
          <mxGeometry y="100" width="140" height="30" as="geometry" />
        </mxCell>
        <mxCell id="L5Cra1L9hOz5cC9cRkCS-23" value="Precio" style="text;html=1;whiteSpace=wrap;" vertex="1" parent="L5Cra1L9hOz5cC9cRkCS-18">
          <mxGeometry y="130" width="140" height="30" as="geometry" />
        </mxCell>
        <mxCell id="L5Cra1L9hOz5cC9cRkCS-24" style="fillColor=#dae8fc;strokeColor=#6c8ebf;" edge="1" parent="1" source="L5Cra1L9hOz5cC9cRkCS-1" target="L5Cra1L9hOz5cC9cRkCS-13">
          <mxGeometry relative="1" as="geometry" />
        </mxCell>
        <mxCell id="L5Cra1L9hOz5cC9cRkCS-25" style="fillColor=#dae8fc;strokeColor=#6c8ebf;" edge="1" parent="1" source="L5Cra1L9hOz5cC9cRkCS-13" target="L5Cra1L9hOz5cC9cRkCS-18">
          <mxGeometry relative="1" as="geometry" />
        </mxCell>
        <mxCell id="L5Cra1L9hOz5cC9cRkCS-26" style="fillColor=#dae8fc;strokeColor=#6c8ebf;" edge="1" parent="1" source="L5Cra1L9hOz5cC9cRkCS-14" target="L5Cra1L9hOz5cC9cRkCS-7">
          <mxGeometry relative="1" as="geometry" />
        </mxCell>
        <mxCell id="L5Cra1L9hOz5cC9cRkCS-29" value="" style="fillColor=#dae8fc;strokeColor=#6c8ebf;" edge="1" parent="1" source="L5Cra1L9hOz5cC9cRkCS-18" target="L5Cra1L9hOz5cC9cRkCS-14">
          <mxGeometry relative="1" as="geometry">
            <mxPoint x="655" y="226" as="sourcePoint" />
            <mxPoint x="395" y="209" as="targetPoint" />
          </mxGeometry>
        </mxCell>
        <mxCell id="L5Cra1L9hOz5cC9cRkCS-14" value="ID_Pedido (PK)" style="text;html=1;whiteSpace=wrap;" vertex="1" parent="1">
          <mxGeometry x="455" y="190" width="140" height="110" as="geometry" />
        </mxCell>
      </root>
    </mxGraphModel>
  </diagram>
</mxfile>
